<svg xmlns="http://www.w3.org/2000/svg" width="47.6" height="47.9" viewBox="0 0 47.6 47.9">
  <g id="business-solution" transform="translate(-0.2 -0.2)">
    <g id="Layer_1-2">
      <g id="creative_idea-innovation">
        <path id="Path_671" data-name="Path 671" d="M25.5,43.2h0a3.671,3.671,0,0,0,3.7,3.6h3.7a3.738,3.738,0,0,0,3.7-3.6h0" fill="none" stroke="#fff" stroke-linecap="round" stroke-linejoin="round" stroke-width="2"/>
        <path id="Path_672" data-name="Path 672" d="M31.4,1.2V2.7" fill="none" stroke="#fff" stroke-linecap="round" stroke-linejoin="round" stroke-width="2"/>
        <path id="Path_673" data-name="Path 673" d="M43.8,7.6l1.1-1" fill="none" stroke="#fff" stroke-linecap="round" stroke-linejoin="round" stroke-width="2"/>
        <path id="Path_674" data-name="Path 674" d="M38.1,3.9l.6-1.3" fill="none" stroke="#fff" stroke-linecap="round" stroke-linejoin="round" stroke-width="2"/>
        <path id="Path_675" data-name="Path 675" d="M24.6,3.9,24,2.6" fill="none" stroke="#fff" stroke-linecap="round" stroke-linejoin="round" stroke-width="2"/>
        <path id="Path_676" data-name="Path 676" d="M25.5,37.2a14.993,14.993,0,0,0-1.7-4.6c-2.7-3.5-5.6-7.8-5.6-12.3a13.2,13.2,0,1,1,26.4,0l2.2,6.6H43.2v4.4a3.058,3.058,0,0,1-2.9,3H39A2.14,2.14,0,0,0,36.9,36h0a10.9,10.9,0,0,0-.3,2.6v1.6h-11" fill="none" stroke="#fff" stroke-linecap="round" stroke-linejoin="round" stroke-width="2"/>
        <path id="Path_677" data-name="Path 677" d="M29.2,32.8c0-4.4,0-8.8-2.9-11.8H36.6c-2.9,2.9-2.9,7.4-2.9,11.8M21.1,7.1H18.9a1.538,1.538,0,0,0-1.5,1.5v.6a1.693,1.693,0,0,1-.9,1.4l-3.8,1.5a1.566,1.566,0,0,1-1.6-.3l-.4-.4a1.45,1.45,0,0,0-2.1,0h0L5.5,14.5a1.45,1.45,0,0,0,0,2.1h0l.8.8a.778.778,0,0,1,.2.8L4.7,22.4a1.416,1.416,0,0,1-1.4.9H2.7a1.538,1.538,0,0,0-1.5,1.5v4.5a1.538,1.538,0,0,0,1.5,1.5h.6a1.693,1.693,0,0,1,1.4.9l1.5,3.8a1.566,1.566,0,0,1-.3,1.6l-.4.4a1.45,1.45,0,0,0,0,2.1h0l3.1,3.1a1.45,1.45,0,0,0,2.1,0h0l.4-.4a1.566,1.566,0,0,1,1.6-.3l3.8,1.6a1.416,1.416,0,0,1,.9,1.4v.6a1.538,1.538,0,0,0,1.5,1.5h2.9" fill="none" stroke="#fff" stroke-linecap="round" stroke-linejoin="round" stroke-width="2"/>
        <path id="Path_678" data-name="Path 678" d="M13.3,21.1a10.241,10.241,0,0,0,8.5,16.1h3.7" fill="none" stroke="#fff" stroke-linecap="round" stroke-linejoin="round" stroke-width="2"/>
      </g>
    </g>
  </g>
</svg>
