<svg xmlns="http://www.w3.org/2000/svg" width="48" height="48.001" viewBox="0 0 48 48.001">
  <g id="chat" transform="translate(-3 -4.999)">
    <g id="Layer_1" data-name="Layer 1" transform="translate(3 5)">
      <g id="web_form-enrollment" data-name="web form-enrollment">
        <path id="Path_661" data-name="Path 661" d="M24.74,39.58H2.48A1.48,1.48,0,0,1,1,38.1V2.48A1.48,1.48,0,0,1,2.48,1h43A1.48,1.48,0,0,1,47,2.48V38.1a1.48,1.48,0,0,1-1.48,1.48H44" fill="none" stroke="#fff" stroke-linecap="round" stroke-linejoin="round" stroke-width="2"/>
        <path id="Path_662" data-name="Path 662" d="M1,9.16H47" fill="none" stroke="#fff" stroke-linecap="round" stroke-linejoin="round" stroke-width="2"/>
        <path id="Path_663" data-name="Path 663" d="M5.45,5.06h.78" fill="none" stroke="#fff" stroke-linecap="round" stroke-linejoin="round" stroke-width="2"/>
        <path id="Path_664" data-name="Path 664" d="M12.68,5.06h.77" fill="none" stroke="#fff" stroke-linecap="round" stroke-linejoin="round" stroke-width="2"/>
        <path id="Path_665" data-name="Path 665" d="M9.06,5.06h.78" fill="none" stroke="#fff" stroke-linecap="round" stroke-linejoin="round" stroke-width="2"/>
        <path id="Path_666" data-name="Path 666" d="M15.84,14.35H42.55V18.8H15.84Z" fill="none" stroke="#fff" stroke-linecap="round" stroke-linejoin="round" stroke-width="2"/>
        <path id="Path_667" data-name="Path 667" d="M24.74,33.65h-8.9V23.26H42.55v7.42" fill="none" stroke="#fff" stroke-linecap="round" stroke-linejoin="round" stroke-width="2"/>
        <path id="Path_668" data-name="Path 668" d="M5.45,23.26h5.94" fill="none" stroke="#fff" stroke-linecap="round" stroke-linejoin="round" stroke-width="2"/>
        <path id="Path_669" data-name="Path 669" d="M5.45,14.35h5.94" fill="none" stroke="#fff" stroke-linecap="round" stroke-linejoin="round" stroke-width="2"/>
        <path id="Path_670" data-name="Path 670" d="M29.19,26.97V43.29l4.46-3.71L38.1,47l3.71-2.23-4.46-7.42,5.2-1.48Z" fill="none" stroke="#fff" stroke-linecap="round" stroke-linejoin="round" stroke-width="2"/>
      </g>
    </g>
  </g>
</svg>
