<svg id="doc-edit" xmlns="http://www.w3.org/2000/svg" width="48" height="48" viewBox="0 0 48 48">
  <line id="Line_1" data-name="Line 1" x1="42" transform="translate(3 43)" fill="none" stroke="#fff" stroke-linejoin="round" stroke-width="2"/>
  <path id="Path_717" data-name="Path 717" d="M45,43V16a2,2,0,0,0-2-2H39" fill="none" stroke="#fff" stroke-linejoin="round" stroke-width="2"/>
  <path id="Path_718" data-name="Path 718" d="M3,43V16a2,2,0,0,1,2-2h6" fill="none" stroke="#fff" stroke-linejoin="round" stroke-width="2"/>
  <path id="Path_719" data-name="Path 719" d="M4,43H1v2a2,2,0,0,0,2,2H45a2,2,0,0,0,2-2V43H44" fill="none" stroke="#fff" stroke-linejoin="round" stroke-width="2"/>
  <line id="Line_2" data-name="Line 2" x2="10" transform="translate(19 44)" fill="none" stroke="#fff" stroke-linejoin="round" stroke-width="2"/>
  <rect id="Rectangle_249" data-name="Rectangle 249" width="34" height="8" transform="translate(28 1) rotate(90)" fill="none" stroke="#fff" stroke-linejoin="round" stroke-width="2"/>
  <line id="Line_3" data-name="Line 3" x1="4" transform="translate(24 6)" fill="none" stroke="#fff" stroke-linejoin="round" stroke-width="2"/>
  <line id="Line_4" data-name="Line 4" x1="5" transform="translate(23 10)" fill="none" stroke="#fff" stroke-linejoin="round" stroke-width="2"/>
  <line id="Line_5" data-name="Line 5" x1="4" transform="translate(24 14)" fill="none" stroke="#fff" stroke-linejoin="round" stroke-width="2"/>
  <line id="Line_6" data-name="Line 6" x1="5" transform="translate(23 18)" fill="none" stroke="#fff" stroke-linejoin="round" stroke-width="2"/>
  <line id="Line_7" data-name="Line 7" x1="4" transform="translate(24 22)" fill="none" stroke="#fff" stroke-linejoin="round" stroke-width="2"/>
  <line id="Line_8" data-name="Line 8" x1="4" transform="translate(24 30)" fill="none" stroke="#fff" stroke-linejoin="round" stroke-width="2"/>
  <path id="Path_720" data-name="Path 720" d="M11,35V8h4V35" fill="none" stroke="#fff" stroke-linejoin="round" stroke-width="2"/>
  <path id="Path_721" data-name="Path 721" d="M11,8l2-5,2,5" fill="none" stroke="#fff" stroke-linejoin="round" stroke-width="2"/>
  <line id="Line_9" data-name="Line 9" x1="5" transform="translate(23 26)" fill="none" stroke="#fff" stroke-linejoin="round" stroke-width="2"/>
  <line id="Line_10" data-name="Line 10" x2="34" transform="translate(7 35)" fill="none" stroke="#fff" stroke-linejoin="round" stroke-width="2"/>
  <line id="Line_11" data-name="Line 11" x2="4" transform="translate(11 25)" fill="none" stroke="#fff" stroke-linejoin="round" stroke-width="2"/>
  <path id="Path_722" data-name="Path 722" d="M11,32H8V22" fill="none" stroke="#fff" stroke-linejoin="round" stroke-width="2"/>
  <path id="Path_723" data-name="Path 723" d="M33,23V11h6V21a2,2,0,0,1-2,2V35H33V11" fill="none" stroke="#fff" stroke-linejoin="round" stroke-width="2"/>
  <path id="Path_724" data-name="Path 724" d="M33,11c2,0,2-6,2-6h2s0,6,2,6" fill="none" stroke="#fff" stroke-linejoin="round" stroke-width="2"/>
  <line id="Line_12" data-name="Line 12" y1="3" transform="translate(36 2)" fill="none" stroke="#fff" stroke-linejoin="round" stroke-width="2"/>
  <line id="Line_13" data-name="Line 13" x2="4" transform="translate(33 29)" fill="none" stroke="#fff" stroke-linejoin="round" stroke-width="2"/>
  <line id="Line_14" data-name="Line 14" x1="5" transform="translate(28 14)" fill="none" stroke="#fff" stroke-linejoin="round" stroke-width="2"/>
  <line id="Line_15" data-name="Line 15" x1="5" transform="translate(15 14)" fill="none" stroke="#fff" stroke-linejoin="round" stroke-width="2"/>
</svg>
