<svg xmlns="http://www.w3.org/2000/svg" width="49.797" height="48.257" viewBox="0 0 49.797 48.257">
  <g id="events" transform="translate(14988 -13040)">
    <g id="_017-calendar" data-name="017-calendar" transform="translate(-14988 13040)">
      <path id="Path_735" data-name="Path 735" d="M43.765,26.924V2.8H37.929V0H35.012V2.8H32.094V0H29.176V2.8H26.259V0H23.341V2.8H20.423V0H17.506V2.8H14.588V0H11.671V2.8H8.753V0H5.835V2.8H0V40.247H27.681A11.307,11.307,0,1,0,43.765,26.924ZM5.835,5.723v4.514H8.753V5.723h2.918v4.514h2.917V5.723h2.918v4.514h2.918V5.723h2.918v4.514h2.917V5.723h2.918v4.514h2.917V5.723h2.918v4.514H37.93V5.723h2.918v8.053H2.917V5.723Zm-2.918,31.6V16.7h37.93v9.164a11.3,11.3,0,0,0-2.355-.248q-.283,0-.563.014v-5.76H5.835V34.282H27.5a11.316,11.316,0,0,0-.315,2.653c0,.131,0,.26.008.389Zm32.095-11.71H32.08V22.79h2.932Zm-5.85,0H26.23V22.79h2.933Zm-5.85,0H20.38V22.79h2.932Zm-5.85,0H14.53V22.79h2.933Zm-5.85,0H8.753V22.79h2.86Zm-2.86,2.922h2.86v2.824H8.753Zm5.777,0h2.933v2.824H14.53Zm5.85,0h2.932v2.824H20.38Zm5.85,0h2.933v2.014q-.27.394-.506.81H26.23Zm12.263,16.8a8.4,8.4,0,1,1,8.387-8.4A8.4,8.4,0,0,1,38.492,45.335Zm0,0" fill="#fff"/>
      <path id="Path_736" data-name="Path 736" d="M349.036,341.628l-2.156-1.893-2.563,2.252,4.72,4.145,7.717-6.779-2.564-2.252Zm0,0" transform="translate(-312.287 -304.193)" fill="#fff"/>
    </g>
  </g>
</svg>
