<svg xmlns="http://www.w3.org/2000/svg" width="48" height="48.008" viewBox="0 0 48 48.008">
  <g id="teaching-learning" transform="translate(-3 0.008)">
    <path id="Path_716" data-name="Path 716" d="M47,11c-3.844,0-7.71.148-11.029.418a11.984,11.984,0,0,0-23.942,0C8.71,11.148,4.844,11,1,11a1,1,0,0,0-1,1V44a1,1,0,0,0,1,1H2v2a1,1,0,0,0,1,1H45a1,1,0,0,0,1-1V45h1a1,1,0,0,0,1-1V12A1,1,0,0,0,47,11ZM24,2a10,10,0,0,1,1,19.949V13a3,3,0,0,0,3-3V9H26v1a1,1,0,0,1-1,1H22a1,1,0,0,1-1-1V9H19v1a3,3,0,0,0,3,3h1v4.91A6.006,6.006,0,0,1,18,12H16a8.008,8.008,0,0,0,7,7.931v2.018A10,10,0,0,1,24,2ZM21,26V23.6a11.59,11.59,0,0,0,6,0V26Zm6,2v1a1,1,0,0,1-1,1H22a1,1,0,0,1-1-1V28ZM4,46v-.995c5.48.024,13.344.165,17,.995Zm19-1.346C19.673,43.2,12.317,43.01,2,43V40c6.851.005,20.475.1,21,2ZM44,46H27c3.657-.83,11.521-.971,17-.995Zm2-3c-10.317.01-17.673.2-21,1.654V42c.525-1.9,14.149-1.995,21-2Zm0-5c-10.309.01-17.675.2-21,1.653V36H23v3.654C19.675,38.2,12.309,38.011,2,38V13c3.547.024,7.063.174,10.093.427A12.021,12.021,0,0,0,19,22.9V29a3,3,0,0,0,3,3h1v2h2V32h1a3,3,0,0,0,3-3V22.9a12.021,12.021,0,0,0,6.907-9.465c3.03-.253,6.546-.4,10.093-.427Z" transform="translate(3)" fill="#fff"/>
  </g>
</svg>
