<svg id="_30-e-learning" data-name="30-e-learning" xmlns="http://www.w3.org/2000/svg" width="48" height="48" viewBox="0 0 48 48">
  <line id="Line_16" data-name="Line 16" x1="42" transform="translate(3 43)" fill="none" stroke="#fff" stroke-linejoin="round" stroke-width="2"/>
  <path id="Path_725" data-name="Path 725" d="M45,43V17a2,2,0,0,0-2-2H33" fill="none" stroke="#fff" stroke-linejoin="round" stroke-width="2"/>
  <path id="Path_726" data-name="Path 726" d="M3,43V17a2,2,0,0,1,2-2H15" fill="none" stroke="#fff" stroke-linejoin="round" stroke-width="2"/>
  <path id="Path_727" data-name="Path 727" d="M4,43H1v2a2,2,0,0,0,2,2H45a2,2,0,0,0,2-2V43H44" fill="none" stroke="#fff" stroke-linejoin="round" stroke-width="2"/>
  <line id="Line_17" data-name="Line 17" x2="10" transform="translate(19 44)" fill="none" stroke="#fff" stroke-linejoin="round" stroke-width="2"/>
  <rect id="Rectangle_250" data-name="Rectangle 250" width="18" height="26" transform="translate(15 13)" fill="none" stroke="#fff" stroke-linejoin="round" stroke-width="2"/>
  <path id="Path_728" data-name="Path 728" d="M15,13l9-5,9,5" fill="none" stroke="#fff" stroke-linejoin="round" stroke-width="2"/>
  <path id="Path_729" data-name="Path 729" d="M24,8V1h8V6H24" fill="none" stroke="#fff" stroke-linejoin="round" stroke-width="2"/>
  <rect id="Rectangle_251" data-name="Rectangle 251" width="8" height="15" transform="translate(33 24)" fill="none" stroke="#fff" stroke-linejoin="round" stroke-width="2"/>
  <rect id="Rectangle_252" data-name="Rectangle 252" width="8" height="15" transform="translate(7 24)" fill="none" stroke="#fff" stroke-linejoin="round" stroke-width="2"/>
  <path id="Path_730" data-name="Path 730" d="M19,39V26H29V39" fill="none" stroke="#fff" stroke-linejoin="round" stroke-width="2"/>
  <line id="Line_18" data-name="Line 18" y2="13" transform="translate(24 26)" fill="none" stroke="#fff" stroke-linejoin="round" stroke-width="2"/>
  <circle id="Ellipse_49" data-name="Ellipse 49" cx="2" cy="2" r="2" transform="translate(22 17)" fill="none" stroke="#fff" stroke-linejoin="round" stroke-width="2"/>
  <line id="Line_19" data-name="Line 19" x2="2" transform="translate(10 28)" fill="none" stroke="#fff" stroke-linejoin="round" stroke-width="2"/>
  <line id="Line_20" data-name="Line 20" y2="5" transform="translate(11 31)" fill="none" stroke="#fff" stroke-linejoin="round" stroke-width="2"/>
  <line id="Line_21" data-name="Line 21" x2="2" transform="translate(36 28)" fill="none" stroke="#fff" stroke-linejoin="round" stroke-width="2"/>
  <line id="Line_22" data-name="Line 22" y2="5" transform="translate(37 31)" fill="none" stroke="#fff" stroke-linejoin="round" stroke-width="2"/>
</svg>
