<svg xmlns="http://www.w3.org/2000/svg" xmlns:xlink="http://www.w3.org/1999/xlink" width="49" height="45" viewBox="0 0 49 45">
  <defs>
    <clipPath id="clip-path">
      <rect id="Rectangle_264" data-name="Rectangle 264" width="49" height="45" transform="translate(390 730)" fill="#fff" stroke="#707070" stroke-width="1"/>
    </clipPath>
  </defs>
  <g id="video-conferencing" transform="translate(-390 -730)" clip-path="url(#clip-path)">
    <g id="e_learning" data-name="e learning" transform="translate(388.77 726.754)">
      <path id="Path_743" data-name="Path 743" d="M42.923,17.69H23.014A3.731,3.731,0,0,0,19.3,21.405v2.718h-.8a8.845,8.845,0,1,1,8.6-10.888,1.606,1.606,0,1,0,3.136-.692,12.062,12.062,0,1,0-18.8,12.544,11.048,11.048,0,0,0-6.61,10.035v4.905a8.218,8.218,0,0,0,8.218,8.218H19.3a1.608,1.608,0,0,0,1.608-1.608V43.132A4.551,4.551,0,0,0,16.372,38.6H14.763a.354.354,0,0,1-.289-.354V35.381a1.608,1.608,0,0,0-3.216,0v2.863a3.554,3.554,0,0,0,3.57,3.57h1.608a1.319,1.319,0,0,1,1.319,1.319v1.9H13.043a5,5,0,0,1-5-5V35.123a7.784,7.784,0,0,1,7.784-7.784H19.3v7.543A3.731,3.731,0,0,0,23.014,38.6h4.825L27.6,40.205H26.455a3.892,3.892,0,0,0-3.94,3.892v2.541a1.608,1.608,0,0,0,1.608,1.608h8.041a1.608,1.608,0,1,0,0-3.216H25.731V44.1a.675.675,0,0,1,.675-.675h2.541a1.608,1.608,0,0,0,1.608-1.383l1.27-8.861a1.174,1.174,0,0,1,2.316,0l1.238,8.861a1.608,1.608,0,0,0,1.608,1.383H39.53a.675.675,0,0,1,.675.675v.933H38.6a1.608,1.608,0,0,0,0,3.216h3.216a1.608,1.608,0,0,0,1.608-1.608V44.1a3.892,3.892,0,0,0-3.892-3.892H38.388L38.147,38.6h4.825a3.731,3.731,0,0,0,3.667-3.715V21.405A3.731,3.731,0,0,0,42.923,17.69Zm.5,17.192a.5.5,0,0,1-.5.5H37.7l-.386-2.67a4.39,4.39,0,0,0-8.684,0l-.386,2.67H23.014a.5.5,0,0,1-.5-.5V21.405a.5.5,0,0,1,.5-.5h19.91a.5.5,0,0,1,.5.5Z" fill="#fff"/>
    </g>
  </g>
</svg>
