<svg xmlns="http://www.w3.org/2000/svg" width="43" height="46.5" viewBox="0 0 43 46.5">
  <g id="video_conference" data-name="video conference" transform="translate(-16.5 1.5)">
    <path id="Path_713" data-name="Path 713" d="M40.731,2H15.821a1.6,1.6,0,0,0-1.536,1.661,1.6,1.6,0,0,0,1.536,1.661H40.731a1.249,1.249,0,0,1,1.2,1.3V35.58a1.249,1.249,0,0,1-1.2,1.3H9.679V31.76a4.678,4.678,0,0,1,4.484-4.849h4.853a4.357,4.357,0,0,1,3.206,1.477A5.1,5.1,0,0,1,23.5,31.893a1.54,1.54,0,1,0,3.071,0,8.219,8.219,0,0,0-4.239-7.307,9.658,9.658,0,0,0,2.119-10.033,8.485,8.485,0,0,0-7.863-5.8,8.485,8.485,0,0,0-7.863,5.8,9.658,9.658,0,0,0,2.119,10.033A8.207,8.207,0,0,0,6.607,31.76v5.115H6.269a1.249,1.249,0,0,1-1.2-1.3V6.617a1.249,1.249,0,0,1,1.2-1.3H9.679a1.6,1.6,0,0,0,1.536-1.661A1.6,1.6,0,0,0,9.679,2H6.269A4.469,4.469,0,0,0,2,6.617V35.58A4.469,4.469,0,0,0,6.269,40.2h9.214l-.921,4.982H12.75a1.666,1.666,0,0,0,0,3.321h21.5a1.666,1.666,0,0,0,0-3.321H32.438L31.516,40.2h9.214A4.469,4.469,0,0,0,45,35.58V6.617A4.469,4.469,0,0,0,40.731,2ZM16.589,11.964a5.607,5.607,0,0,1,5.375,5.812,5.607,5.607,0,0,1-5.375,5.813,5.607,5.607,0,0,1-5.375-5.812,5.607,5.607,0,0,1,5.375-5.812ZM29.3,45.179H17.695l.921-4.982h9.767Z" transform="translate(14.5 -3.5)" fill="#fff"/>
    <path id="Path_714" data-name="Path 714" d="M20,13h6a1,1,0,0,0,1-1V7a1,1,0,0,0-1-1H20a1,1,0,0,0-1,1v5A1,1,0,0,0,20,13Zm1-5h4v3H21Z" transform="translate(24 4)" fill="#fff"/>
    <path id="Path_715" data-name="Path 715" d="M19,20a1,1,0,0,0,1,1h6a1,1,0,0,0,1-1V15a1,1,0,0,0-1-1H20a1,1,0,0,0-1,1Zm2-4h4v3H21Z" transform="translate(24 6.75)" fill="#fff"/>
  </g>
</svg>
