<svg xmlns="http://www.w3.org/2000/svg" width="47.509" height="45.143" viewBox="0 0 47.509 45.143">
  <g id="whiteboard" transform="translate(-2 -3)">
    <path id="Path_709" data-name="Path 709" d="M43.943,31.941a8.176,8.176,0,0,0,2.172-5.534,1.7,1.7,0,0,0-3.393,0,5.029,5.029,0,0,1-3.775,4.842,5.122,5.122,0,0,1-5.724-2.339,4.961,4.961,0,0,1,.81-6.054,5.147,5.147,0,0,1,6.144-.8,1.719,1.719,0,0,0,1.3.146,1.692,1.692,0,0,0,1.02-.815,1.65,1.65,0,0,0,.136-1.338,1.536,1.536,0,0,0,.085-.334V7.33A4.363,4.363,0,0,0,38.327,3H6.395A4.363,4.363,0,0,0,2,7.33V35.452a4.363,4.363,0,0,0,4.395,4.33h9.179a1.672,1.672,0,1,0,0-3.344H6.395a1.011,1.011,0,0,1-1-.986V7.33a1.011,1.011,0,0,1,1-.986H38.327a1.011,1.011,0,0,1,1,.986v10.9a8.243,8.243,0,0,0-1.7-.184,8.422,8.422,0,0,0-8.484,8.36,8.147,8.147,0,0,0,1.7,5.016H27.621a2.975,2.975,0,0,1-2.07-.836l-.305-.3a4.74,4.74,0,0,0-6.634,0,4.575,4.575,0,0,0,0,6.537l2.8,2.759a6.5,6.5,0,0,0,4.632,1.873h2.511a.59.59,0,0,1,.594.585v4.431a1.684,1.684,0,0,0,1.7,1.672H47.812a1.684,1.684,0,0,0,1.7-1.672V39.783A8.367,8.367,0,0,0,43.943,31.941ZM46.115,44.8H42.722V41.455a1.7,1.7,0,0,0-3.393,0V44.8H32.541V42.04a3.959,3.959,0,0,0-3.987-3.929H26.043a3.1,3.1,0,0,1-2.189-.886l-2.8-2.759a1.31,1.31,0,0,1-.39-1.037,1.235,1.235,0,0,1,.577-.936,1.3,1.3,0,0,1,1.7.15l.305.3a6.308,6.308,0,0,0,4.428,1.822H41.025a5.053,5.053,0,0,1,5.09,5.016Z" transform="translate(0 0)" fill="#fff"/>
    <path id="Path_710" data-name="Path 710" d="M7,10h7a1,1,0,0,0,0-2H7a1,1,0,0,0,0,2Z" transform="translate(0 2.3)" fill="#fff"/>
    <path id="Path_711" data-name="Path 711" d="M7,14H17a1,1,0,0,0,0-2H7a1,1,0,0,0,0,2Z" transform="translate(0 4.14)" fill="#fff"/>
    <path id="Path_712" data-name="Path 712" d="M7,18h5a1,1,0,0,0,0-2H7a1,1,0,0,0,0,2Z" transform="translate(0 5.98)" fill="#fff"/>
  </g>
</svg>
